<?xml version="1.0" encoding="UTF-8"?>
<svg id="Layer_2" xmlns="http://www.w3.org/2000/svg" viewBox="0 0 87.59 45.75">
  <defs>
    <style>
      .cls-1 {
        fill: #027cb3;
      }
    </style>
  </defs>
  <g id="Layer_1-2" data-name="Layer_1">
    <g>
      <path class="cls-1" d="M35.71,44.39h.41v-.93h.33c.22,0,.38.03.46.08.15.08.22.27.22.54v.28s.01.02.01.03h.39l-.02-.03-.02-.12v-.35c0-.12-.04-.24-.13-.36-.08-.13-.22-.2-.41-.23.14-.02.26-.06.34-.12.16-.1.23-.25.23-.46,0-.29-.12-.49-.37-.59-.14-.06-.35-.08-.64-.08h-.83v2.35h.03ZM36.9,43.12c-.09.03-.22.05-.4.05h-.37v-.85h.36c.23,0,.39.03.5.09.1.06.15.17.15.35s-.08.3-.24.36ZM38.09,41.71c-.41-.42-.92-.63-1.52-.63s-1.09.21-1.5.63c-.42.42-.63.92-.63,1.51s.21,1.1.62,1.52c.42.42.92.63,1.51.63s1.1-.21,1.52-.63c.42-.42.63-.93.63-1.52s-.21-1.1-.63-1.51ZM37.88,41.92c.36.36.54.79.54,1.3s-.18.95-.54,1.31c-.36.36-.79.54-1.3.54s-.94-.18-1.3-.54c-.36-.36-.53-.8-.53-1.31s.18-.94.53-1.3c.36-.36.79-.54,1.3-.54s.94.18,1.3.54Z"/>
      <path class="cls-1" d="M32.27,12.93V.48H12.45v12.45H0v19.9h12.45v12.44h19.82v-12.44h12.44V12.93h-12.44Z"/>
      <path class="cls-1" d="M78.25,44.39h.41v-.93h.33c.22,0,.37.03.46.08.15.08.23.27.23.54v.28s.01.02.01.03h.39v-.03s-.03-.06-.04-.12v-.35c0-.12-.04-.24-.13-.36-.08-.13-.22-.2-.41-.23.15-.02.26-.06.34-.12.15-.1.23-.25.23-.46,0-.29-.12-.49-.36-.59-.14-.06-.35-.08-.64-.08h-.82v2.35h0ZM79.43,43.12c-.09.03-.22.05-.39.05h-.37v-.85h.35c.23,0,.39.03.5.09.1.06.16.17.16.35s-.08.3-.24.36M80.63,41.71c-.42-.42-.92-.63-1.52-.63s-1.09.21-1.5.63c-.42.42-.63.92-.63,1.51s.21,1.1.62,1.52c.41.42.92.63,1.51.63s1.1-.21,1.52-.63c.42-.42.63-.93.63-1.52s-.21-1.1-.63-1.51ZM80.42,41.92c.35.36.54.79.54,1.3s-.18.95-.54,1.31c-.36.36-.79.54-1.3.54s-.94-.18-1.3-.54c-.36-.36-.53-.8-.53-1.31s.18-.94.53-1.3c.36-.36.79-.54,1.3-.54s.94.18,1.3.54Z"/>
      <path class="cls-1" d="M84.85,0c-4.91,2.47-9.85,3.71-15.58,3.73-5.74.02-10.67-1.25-15.59-3.73-3.23,6.35-3.69,16.53-.9,25.14,2.68,8.3,7.89,15.86,16.49,20.61,8.59-4.75,13.8-12.31,16.48-20.61,2.79-8.61,2.33-18.8-.9-25.14Z"/>
    </g>
  </g>
</svg>